# xmcd
#
# Track frame offsets:
#	150
#	14909
#	28095
#	43624
#	58647
#	72352
#	86334
#	98845
#	112372
#	127539
#	141134
#	155567
#	169275
#	182159
#	194576
#	210240
#	221240
#	235439
#	258353
#
# Disc length: 3621 seconds
#
# Revision: 1
# Processed by: cddbd v1.5.1PL2 Copyright (c) Steve Scherf et al.
# Submitted via: audiograbber 1.83.01
#
DISCID=1d0e2313
DTITLE=Various Artist - Cauntry Gala
DYEAR=2005
DGENRE=
TTITLE0=Tom Cunningham - Nun fängt das wieder an
TTITLE1=Truck Stop - Durch Sachsen ohne Anhalt
TTITLE2=Gudrun Lange and Kactus - Träume nicht von Memphis
TTITLE3=Mark Chesnutt - Somebody save the honky tonk
TTITLE4=Linda Feller - Papa stell dein Bier hin
TTITLE5=Slow Horses - I can´t look at that
TTITLE6=The Twang - The boxer
TTITLE7=Katja Kaye - Kleiner Vampir
TTITLE8=Roy Rivers - Thank God I´m a country boy
TTITLE9=Sally Carter - Hotel Mama
TTITLE10=Silverwood - Pocket kisses
TTITLE11=Joe Hodgkins Boss Band - Portland Daheim
TTITLE12=Country Allstars - Zusammensteh´n
TTITLE13=Lynn Anderson - Rocky top
TTITLE14=Tom Astor - Gib dem Teufel nie die Hand
TTITLE15=Freddy Quinn - Some broken hearts never mend
TTITLE16=Johnny Hill - Wer wie ich viel unterwegs war
TTITLE17=Truck Stop - Super-Hit-Medley
TTITLE18=Lynn Anderson - Rose garden
EXTD=
EXTT0=
EXTT1=
EXTT2=
EXTT3=
EXTT4=
EXTT5=
EXTT6=
EXTT7=
EXTT8=
EXTT9=
EXTT10=
EXTT11=
EXTT12=
EXTT13=
EXTT14=
EXTT15=
EXTT16=
EXTT17=
EXTT18=
PLAYORDER=
